<svg width="195" height="158" viewBox="0 0 195 158" fill="none" xmlns="http://www.w3.org/2000/svg">
<path d="M40.4653 58.2709C25.3093 58.2709 15.156 68.5908 15.156 84.1227C15.156 99.6547 26.0789 109.885 44.2099 109.885H58.4038L47.1848 124.36H42.4782C16.2956 124.345 0 108.917 0 84.1227C0 59.3282 16.6805 43.6026 41.0425 43.6026C53.1199 43.6026 64.3389 47.6532 73.1602 55.1734V122.796L58.389 124.524V63.0809C53.5047 59.9983 46.9776 58.256 40.4653 58.256M73.0565 140.756L90.5066 130.436V35.2038L105.278 23.9159V123.571C105.278 134.173 101.252 141.217 92.2383 146.623L73.0565 158V140.726V140.756ZM121.869 112.968V11.2878L136.626 0V105.045C141.51 108.128 148.037 109.87 154.55 109.87C169.691 109.87 179.859 99.5504 179.859 84.0185C179.859 67.5186 169.409 58.3602 150.805 58.3602C146.202 58.3602 141.599 59.0304 136.611 60.2961L147.919 43.9005H152.522C179.178 43.9005 195 58.8516 195 84.0334C195 109.215 178.32 124.553 153.957 124.553C141.88 124.553 130.661 120.503 121.84 112.983" fill="white"/>
</svg>
