<svg width="1276" height="2455" viewBox="0 0 1276 2455" fill="none" xmlns="http://www.w3.org/2000/svg">
<mask id="mask0_8_919" style="mask-type:alpha" maskUnits="userSpaceOnUse" x="0" y="0" width="1276" height="2455">
<path d="M1045.08 805.913L1044.26 1695.03V1695.43L1044.59 1695.68L1273.73 1870.3L1273.3 1869.44L1272.76 2451.75L1275.35 2450.46L668.689 1988.75L365.359 1757.89L213.693 1642.46L137.866 1584.75C125.232 1575.19 113.013 1565.27 101.678 1554.31C90.3429 1543.39 79.6464 1531.79 70.0924 1519.29C60.5272 1506.81 51.8805 1493.63 44.5554 1479.71L41.8112 1474.5L39.2352 1469.19L37.9471 1466.55L36.7487 1463.86L34.3406 1458.47C31.3277 1451.22 28.4044 1443.91 25.9627 1436.43C23.3978 1428.99 21.2808 1421.41 19.2535 1413.8C17.383 1406.15 15.6134 1398.47 14.2582 1390.71C11.4356 1375.22 9.57644 1359.53 8.5908 1343.77C8.40039 1339.83 8.13155 1335.89 7.99714 1331.95C7.90754 1328 7.69471 1324.05 7.69471 1320.1C7.5827 1312.22 7.62758 1304.26 7.62758 1296.31L7.67229 1248.63L7.76198 1153.26L8.10912 771.802L8.80354 8.88081L1.73613 12.3905L1040.05 802.1L1045.06 805.913H1045.08ZM1045.08 793.298L7.07863 5.37108L5.893e-06 0V8.88081L0.70564 771.802L1.05278 1153.26L1.14247 1248.63L1.18732 1296.31C1.19852 1304.26 1.16489 1312.19 1.2993 1320.2C1.2993 1324.21 1.52322 1328.2 1.63523 1332.19C1.76963 1336.18 2.0497 1340.19 2.25131 1344.18C3.28175 1360.15 5.20819 1376.08 8.09791 1391.85C9.49797 1399.74 11.3125 1407.56 13.2278 1415.34C15.2999 1423.09 17.4727 1430.81 20.1048 1438.4C22.6137 1446.03 25.6042 1453.48 28.7068 1460.9L31.1708 1466.39L32.403 1469.14L33.7245 1471.84L36.3678 1477.26L39.1792 1482.58C46.6947 1496.78 55.5542 1510.25 65.3322 1522.97C75.099 1535.71 86.0195 1547.52 97.5783 1558.61C109.115 1569.72 121.626 1579.83 134.338 1589.41L210.277 1646.99L362.155 1762.14L665.9 1992.43L1273.4 2453.04L1276 2455V2451.75L1275.46 1869.44V1868.9L1275.04 1868.57L1045.57 1694.38L1045.9 1695.03L1045.08 799.611V793.309V793.298Z" fill="#9E6137"/>
</mask>
<g mask="url(#mask0_8_919)">
<rect x="98" y="1316" width="1203" height="1004" fill="#B98666" fill-opacity="0.937"/>
</g>
</svg>
